<svg width="200" height="60" viewBox="0 0 200 60" fill="none" xmlns="http://www.w3.org/2000/svg">
  <!-- Logo Sim Consult WhatsApp CRM -->
  <rect width="200" height="60" rx="8" fill="url(#gradient)"/>
  
  <!-- WhatsApp Icon -->
  <circle cx="30" cy="30" r="18" fill="#25D366"/>
  <path d="M25.5 35.5L23 38L28.5 36.5L25.5 35.5Z" fill="white" fill-opacity="0.8"/>
  <path d="M30 20C24.5 20 20 24.5 20 30C20 32.2 20.6 34.2 21.6 35.9L20 40L24.2 38.4C25.8 39.3 27.8 39.8 30 39.8C35.5 39.8 40 35.3 40 30C40 24.7 35.5 20 30 20Z" fill="white"/>
  
  <!-- Texto Sim Consult -->
  <text x="55" y="25" font-family="Arial, sans-serif" font-size="16" font-weight="bold" fill="white">SIM CONSULT</text>
  <text x="55" y="40" font-family="Arial, sans-serif" font-size="10" fill="white" opacity="0.8">WHATSAPP CRM</text>
  
  <!-- Elementos decorativos -->
  <circle cx="180" cy="15" r="2" fill="white" opacity="0.3"/>
  <circle cx="185" cy="20" r="1.5" fill="white" opacity="0.2"/>
  <circle cx="175" cy="25" r="1" fill="white" opacity="0.4"/>
  
  <defs>
    <linearGradient id="gradient" x1="0" y1="0" x2="200" y2="60" gradientUnits="userSpaceOnUse">
      <stop offset="0%" stop-color="#667eea"/>
      <stop offset="100%" stop-color="#764ba2"/>
    </linearGradient>
  </defs>
</svg>